<svg width="1920" height="8" viewBox="0 0 1920 8" fill="none" xmlns="http://www.w3.org/2000/svg">
<rect opacity="0.3" x="1920" y="6.99994" width="1.00008" height="1921" transform="rotate(90 1920 6.99994)" fill="white"/>
<rect x="451" y="6" width="1" height="2" fill="white"/>
<rect x="730" y="6" width="1" height="2" fill="white"/>
<rect x="1009" y="6" width="1" height="2" fill="white"/>
<rect x="1288" y="6" width="1" height="2" fill="white"/>
<rect x="637" y="6" width="1" height="2" fill="white"/>
<rect x="916" y="6" width="1" height="2" fill="white"/>
<rect x="1195" y="6" width="1" height="2" fill="white"/>
<rect x="1474" y="6" width="1" height="2" fill="white"/>
<rect x="544" y="6" width="1" height="2" fill="white"/>
<rect x="823" y="6" width="1" height="2" fill="white"/>
<rect x="1102" y="6" width="1" height="2" fill="white"/>
<rect x="1381" y="6" width="1" height="2" fill="white"/>
<rect x="358" width="1" height="8" fill="white"/>
</svg>
