<svg width="21" height="21" fill="none" xmlns="http://www.w3.org/2000/svg"><path d="M4.455 15.682a.866.866 0 01-.864.864H1.864A.866.866 0 011 15.681v-3.455c0-.475.389-.863.864-.863H3.59c.475 0 .864.388.864.863v3.455zM1 12.227V10.5m0 0C1 5.258 5.258 1 10.5 1c5.25 0 9.5 4.258 9.5 9.5m-3.454 5.182c0 .475.388.864.863.864h1.727a.866.866 0 00.864-.864v-3.455a.866.866 0 00-.864-.863H17.41a.866.866 0 00-.863.863v3.455zM20 12.227V10.5m-8.636 8.636H9.636V20h1.728v-.864z" stroke="#37455C" stroke-width="2" stroke-miterlimit="10" stroke-linecap="round" stroke-linejoin="round"/><path d="M20 11.14v6.27L13.954 20H11.13" stroke="#37455C" stroke-width="2" stroke-miterlimit="10" stroke-linecap="round" stroke-linejoin="round"/></svg>